<svg xmlns="http://www.w3.org/2000/svg" xmlns:xlink="http://www.w3.org/1999/xlink" version="1.1" x="0px" y="0px" viewBox="0 0 100 125" enable-background="new 0 0 100 100" xml:space="preserve"><path clip-path="url(#SVGID_2_)" d="M65.364,56.539c-6.051,0-10.974,4.814-10.974,10.732s4.923,10.732,10.974,10.732   c6.052,0,10.975-4.814,10.975-10.732S71.416,56.539,65.364,56.539 M65.364,77.109c-5.558,0-10.079-4.413-10.079-9.838   c0-5.424,4.521-9.837,10.079-9.837c5.559,0,10.079,4.413,10.079,9.837C75.443,72.696,70.923,77.109,65.364,77.109"/><path clip-path="url(#SVGID_2_)" d="M36.521,71.097c-2.71,0-4.915-2.205-4.915-4.915V32.189c0-2.71,2.205-4.915,4.915-4.915h23.516   c2.71,0,4.914,2.205,4.914,4.915v23.299c0.138-0.005,0.274-0.011,0.413-0.011c0.993,0,1.957,0.121,2.881,0.343V32.189   c0-4.527-3.683-8.21-8.208-8.21H36.521c-4.526,0-8.21,3.683-8.21,8.21v33.993c0,4.526,3.684,8.21,8.21,8.21h19.235   c-0.768-0.989-1.377-2.1-1.798-3.295H36.521z"/><rect x="37.913" y="34.592" clip-path="url(#SVGID_2_)" width="20.424" height="1.242"/><rect x="38.067" y="38.881" clip-path="url(#SVGID_2_)" width="20.424" height="1.242"/><rect x="38.221" y="43.17" clip-path="url(#SVGID_2_)" width="20.423" height="1.242"/><rect x="38.376" y="47.46" clip-path="url(#SVGID_2_)" width="20.424" height="1.242"/><rect x="38.221" y="51.749" clip-path="url(#SVGID_2_)" width="20.579" height="1.242"/><path clip-path="url(#SVGID_2_)" d="M58.8,57.386v-0.495H38.375v1.242h19.376C58.086,57.866,58.437,57.617,58.8,57.386"/><path clip-path="url(#SVGID_2_)" d="M54.564,62.032H38.221v1.242h15.797C54.176,62.849,54.359,62.435,54.564,62.032"/><path clip-path="url(#SVGID_2_)" d="M65.919,61.193c-0.337-0.334-0.73-0.319-1.073,0.021c-1.385,1.371-2.762,2.748-4.146,4.118   c-0.228,0.227-0.299,0.487-0.185,0.775c0.12,0.304,0.366,0.462,0.697,0.464c0.771,0.005,1.542,0.004,2.312,0.006   c0.143,0,0.284,0.001,0.446,0.001c0,0.21,0,0.358-0.001,0.506c-0.003,1.678-0.009,3.354-0.009,5.032   c0,0.769,0.491,1.363,1.191,1.46c0.91,0.127,1.636-0.51,1.641-1.455c0.008-1.824,0.009-3.649,0.013-5.536   c0.195,0,0.341,0,0.487,0.001c0.758,0.001,1.515,0.004,2.272,0.003c0.331-0.001,0.62-0.153,0.684-0.465   c0.047-0.229-0.002-0.575-0.152-0.73C68.724,63.976,67.322,62.584,65.919,61.193"/><text x="0" y="115" fill="#000000" font-size="5px" font-weight="bold" font-family="'Helvetica Neue', Helvetica, Arial-Unicode, Arial, Sans-serif">Created by slothali</text><text x="0" y="120" fill="#000000" font-size="5px" font-weight="bold" font-family="'Helvetica Neue', Helvetica, Arial-Unicode, Arial, Sans-serif">from the Noun Project</text></svg>