<?xml version="1.0" encoding="UTF-8"?>
<svg id="Layer_1" data-name="Layer 1" xmlns="http://www.w3.org/2000/svg" version="1.1" viewBox="0 0 16 16">
  <defs>
    <style>
      .cls-1 {
        fill: #000;
        stroke-width: 0px;
      }
    </style>
  </defs>
  <path class="cls-1" d="M16,3.9c0,0,0-.2-.1-.3L11.1,0c0,0-.2,0-.4,0H2.4C1.1,0,0,.8,0,1.8v12.5c0,1,1.1,1.8,2.4,1.8h11.2c1.3,0,2.4-.8,2.4-1.8V3.9ZM11.2,1.2l3.2,2.3h-1.7c-.8,0-1.4-.5-1.4-1.1v-1.3ZM13.6,15.3H2.4c-.8,0-1.4-.5-1.4-1.1V1.8c0-.6.6-1.1,1.4-1.1h7.8v1.8c0,1,1.1,1.8,2.4,1.8h2.4v10c0,.6-.6,1.1-1.4,1.1Z"/>
  <path class="cls-1" d="M6.3,8.4l1.2-.9v2.4c0,.2.2.4.5.4s.5-.2.5-.4v-2.4l1.2.9c0,0,.2,0,.4,0s.3,0,.4,0c.2-.1.2-.4,0-.5l-2-1.5c-.2-.1-.5-.1-.7,0l-2,1.5c-.2.1-.2.4,0,.5s.5.1.7,0h0Z"/>
  <path class="cls-1" d="M11.2,9.6c-.3,0-.5.2-.5.4v1.1h-5.4v-1.1c0-.2-.2-.4-.5-.4s-.5.2-.5.4v1.4c0,.2.2.4.5.4h6.4c.3,0,.5-.2.5-.4v-1.4c0-.2-.2-.4-.5-.4Z"/>
</svg>