<?xml version="1.0" encoding="UTF-8"?>
<svg id="Layer_1" data-name="Layer 1" xmlns="http://www.w3.org/2000/svg" version="1.1" viewBox="0 0 52 70.1">
  <defs>
    <style>
      .cls-1 {
        fill: #000;
        stroke-width: 0px;
      }
    </style>
  </defs>
  <path class="cls-1" d="M50.9,17.7c0-.4-.2-.8-.4-1.1L35.5,1.6c-.3-.3-.7-.4-1.1-.4H8.4C4.3,1.2.9,4.6.9,8.7v53c0,4.1,3.4,7.5,7.5,7.5h35c4.1,0,7.5-3.4,7.5-7.5V17.7ZM35.9,6.3l9.9,9.9h-5.4c-2.5,0-4.5-2-4.5-4.5v-5.4ZM43.4,66.2H8.4c-2.5,0-4.5-2-4.5-4.5V8.7c0-2.5,2-4.5,4.5-4.5h24.5v7.5c0,4.1,3.4,7.5,7.5,7.5h7.5v42.5c0,2.5-2,4.5-4.5,4.5Z"/>
  <path class="cls-1" d="M20.6,37.1l3.8-3.8v10.4c0,.8.7,1.5,1.5,1.5s1.5-.7,1.5-1.5v-10.4l3.8,3.8c.3.3.7.4,1.1.4s.8-.1,1.1-.4c.6-.6.6-1.5,0-2.1l-6.4-6.4c-.6-.6-1.5-.6-2.1,0l-6.4,6.4c-.6.6-.6,1.5,0,2.1.6.6,1.5.6,2.1,0h0Z"/>
  <path class="cls-1" d="M35.9,42.2c-.8,0-1.5.7-1.5,1.5v4.5h-17v-4.5c0-.8-.7-1.5-1.5-1.5s-1.5.7-1.5,1.5v6c0,.8.7,1.5,1.5,1.5h20c.8,0,1.5-.7,1.5-1.5v-6c0-.8-.7-1.5-1.5-1.5Z"/>
</svg>